<svg id="Layer_1" data-name="Layer 1" xmlns="http://www.w3.org/2000/svg" viewBox="0 0 191.29 66.21"><defs><style>.cls-1{fill:#fff;}.cls-2{fill:#474748;}.cls-3{fill:#ebba42;}</style></defs><title>logo</title><path class="cls-1" d="M90.38,52.63a.52.52,0,0,0,.36.18h1.08a.8.8,0,0,0,.36.09h1.08a14.24,14.24,0,0,0,2-.14,8,8,0,0,0,1.85-.49,2.25,2.25,0,0,0,1.34-1,3.79,3.79,0,0,0,.45-1.94,3.89,3.89,0,0,0-.67-2.24,5.51,5.51,0,0,0-2-1.71A24,24,0,0,0,93.13,44c-1.17-.42-2.45-.84-3.82-1.26a3.53,3.53,0,0,0-.54-.13,3.58,3.58,0,0,1-.54-.14c-.24-.06-.45-.1-.63-.13a3.58,3.58,0,0,1-.54-.14l-1.21-.36-1.13-.36A23.66,23.66,0,0,1,75.46,37a9.87,9.87,0,0,1-2.56-3.55,11.8,11.8,0,0,1-.85-4.63,12.92,12.92,0,0,1,1.26-6.07,6.66,6.66,0,0,1,3.77-3.28A27.3,27.3,0,0,1,82.56,18a39.48,39.48,0,0,1,6.48-.5l16.27-.18v7h-17l-3,.35a17.86,17.86,0,0,0-2.57.54A3.22,3.22,0,0,0,81,26.29a2.92,2.92,0,0,0-.54,1.8,3.92,3.92,0,0,0,.58,2.11,4.51,4.51,0,0,0,1.75,1.58,20.75,20.75,0,0,0,2.48,1.12c.86.33,1.78.64,2.74.94l.85.18.77.18a1.51,1.51,0,0,0,.35.14,1.92,1.92,0,0,0,.45,0,1.78,1.78,0,0,0,.36.14,1.47,1.47,0,0,0,.36,0l.54.18.54.18a.62.62,0,0,1,.27,0,.64.64,0,0,0,.27,0,.59.59,0,0,0,.23.14.69.69,0,0,0,.22,0A50,50,0,0,1,100,38a17.65,17.65,0,0,1,4.32,3,9.8,9.8,0,0,1,2.29,3.65,13.73,13.73,0,0,1,.76,4.71,13.94,13.94,0,0,1-.94,5,7.59,7.59,0,0,1-2.38,3.19,13.42,13.42,0,0,1-3.1,1.89,14,14,0,0,1-3.46,1,8.66,8.66,0,0,1-1.22.09H94.61a1.7,1.7,0,0,0-.54.09H91.28a1.55,1.55,0,0,0-.49-.09H72.05V52.63Z" transform="translate(-4.71 -2.83)"/><path class="cls-1" d="M117.71,5.48A3.74,3.74,0,0,1,118.88,4a6.11,6.11,0,0,1,1.57-.85,5,5,0,0,1,1.75-.32,5.67,5.67,0,0,1,1.8.27,5.48,5.48,0,0,1,1.62.9,4.15,4.15,0,0,1,1.21,1.48,4.71,4.71,0,0,1,.41,2,4.92,4.92,0,0,1-.41,2.06,4.4,4.4,0,0,1-1.12,1.53,5.48,5.48,0,0,1-1.62.9,5.37,5.37,0,0,1-1.71.27,4.54,4.54,0,0,1-1.79-.18,5.22,5.22,0,0,1-1.71-.9,3.56,3.56,0,0,1-1.17-1.57,5.87,5.87,0,0,1-.36-2.11V7.33A4.73,4.73,0,0,1,117.71,5.48ZM118,17.3h7.82V60.45H118Z" transform="translate(-4.71 -2.83)"/><path class="cls-1" d="M139.28,30.7a13,13,0,0,1,1.08-5.26,13.53,13.53,0,0,1,3.33-4.54,14.68,14.68,0,0,1,5.21-3.1,20.09,20.09,0,0,1,6.65-1,23.07,23.07,0,0,1,4.59.41,11,11,0,0,1,3.23,1.12,12,12,0,0,1,2.34,1.76,11.39,11.39,0,0,1,1.89,2.38,10.71,10.71,0,0,1,2-2,19.56,19.56,0,0,1,2.79-1.85,13.56,13.56,0,0,1,3.6-1.35,20.39,20.39,0,0,1,4.4-.45,18.91,18.91,0,0,1,5.75.86,16.27,16.27,0,0,1,5,2.65,12.21,12.21,0,0,1,3.55,3.91,10.73,10.73,0,0,1,1.3,4.9v.54c-.06.06-.09.1-.09.13v30.7h-7.82V32.9s0,0,.09,0v-.8a3.29,3.29,0,0,0-.05-.54c0-.18-.07-.39-.13-.63a3.4,3.4,0,0,1-.14-.59,6.54,6.54,0,0,0-.13-.67,7.6,7.6,0,0,0-1.08-2.07,12.49,12.49,0,0,0-1.71-1.89,7.09,7.09,0,0,0-2.15-1.34,6.71,6.71,0,0,0-2.43-.45,7.69,7.69,0,0,0-3,.58,7.85,7.85,0,0,0-2.56,1.75,10.22,10.22,0,0,0-1.85,2.47,10,10,0,0,0-.94,2.75,1.25,1.25,0,0,0-.13.4,1.58,1.58,0,0,0-.05.41V60.45h-7.73V33.57a12.17,12.17,0,0,0-.54-3.68,10.47,10.47,0,0,0-1.62-3.15,6.77,6.77,0,0,0-2.69-2.15,9,9,0,0,0-3.69-.72A12,12,0,0,0,151.24,25a5.81,5.81,0,0,0-2.52,2.43,13.57,13.57,0,0,0-1.21,3.24,15.1,15.1,0,0,0-.41,3.5V60.45h-7.82Z" transform="translate(-4.71 -2.83)"/><path d="M37.55,66.47" transform="translate(-4.71 -2.83)"/><path class="cls-2" d="M36.28,66.41A25.61,25.61,0,0,1,4.77,40.54,25,25,0,0,0,21.59,65.75,25.26,25.26,0,0,0,36.28,66.41Z" transform="translate(-4.71 -2.83)"/><path class="cls-3" d="M46.07,35A17.16,17.16,0,0,0,42,27.12a15,15,0,0,0-11.6-5.24,15,15,0,0,0-11.62,5.25A19.26,19.26,0,0,0,14.65,35l-.38,1.46H46.38Z" transform="translate(-4.71 -2.83)"/><path class="cls-3" d="M30.86,3.63A33.64,33.64,0,0,0,6,14.7l4.82,6.5c.22-.24.43-.48.66-.71a25.63,25.63,0,0,1,18.93-8,25.67,25.67,0,0,1,19,8,26.89,26.89,0,0,1,7.84,19.42,32,32,0,0,1-.31,4.49H14.57L15,45.9a18,18,0,0,0,3.88,6.76,15.39,15.39,0,0,0,11.79,5.18,16.21,16.21,0,0,0,8-2,13.3,13.3,0,0,0,5.1-4.9H55a24,24,0,0,1-8.8,11.48,27.56,27.56,0,0,1-3.37,2l3.44,4.64A34.7,34.7,0,0,0,64.85,38.24C64.85,19.16,49.6,3.63,30.86,3.63Z" transform="translate(-4.71 -2.83)"/></svg>